<?xml version="1.0" standalone="no"?>
<!DOCTYPE svg PUBLIC "-//W3C//DTD SVG 20010904//EN"
 "http://www.w3.org/TR/2001/REC-SVG-20010904/DTD/svg10.dtd">
<svg version="1.0" xmlns="http://www.w3.org/2000/svg"
 width="192.000000pt" height="229.600000pt" viewBox="0 0 192.000000 229.600000"
 preserveAspectRatio="xMidYMid meet">
<metadata>
Created by potrace 1.16, written by Peter Selinger 2001-2019
</metadata>
<g transform="translate(0.000000,229.600000) scale(0.080000,-0.080000)"
fill="#000000" stroke="none">
<path d="M1232 2845 c-7 -9 -8 -15 -2 -15 14 0 13 -27 -2 -32 -7 -3 -6 -7 5
-11 14 -5 17 0 17 33 0 45 0 45 -18 25z"/>
<path d="M1260 2823 c0 -36 16 -51 33 -34 9 9 8 11 -5 6 -10 -4 -18 -4 -18 1
0 4 8 16 18 27 9 11 11 17 3 12 -8 -4 -17 -2 -22 6 -6 10 -9 4 -9 -18z"/>
<path d="M120 2742 c0 -11 -8 -26 -17 -33 -14 -12 -16 -12 -9 1 4 8 -1 4 -13
-10 -11 -14 -25 -26 -30 -26 -6 -1 -14 -2 -18 -3 -10 -1 -10 -271 -1 -271 4 0
5 8 1 18 -3 9 4 4 16 -11 22 -27 138 -93 148 -84 6 7 -20 47 -30 47 -4 0 -5
-4 -2 -10 3 -5 1 -10 -4 -10 -18 0 -12 27 7 36 9 4 20 7 23 6 12 -2 10 247 -2
269 -8 15 -8 19 0 15 6 -4 11 -2 11 3 0 6 -12 11 -27 11 -16 0 -35 5 -43 10
-23 15 8 13 140 -10 89 -15 116 -17 122 -7 15 24 0 32 -103 49 -57 9 -119 20
-136 23 -28 5 -33 3 -33 -13z m-10 -83 c0 -5 -4 -8 -9 -5 -24 15 -33 -26 -29
-133 1 -60 0 -104 -4 -98 -4 7 -8 58 -8 114 0 79 3 105 16 117 18 18 34 21 34
5z m52 -6 c15 -14 18 -32 18 -119 0 -80 -3 -106 -16 -118 -22 -22 -31 -20 -11
2 14 15 17 40 17 120 0 93 -2 102 -22 116 -12 9 -18 16 -14 16 5 0 18 -7 28
-17z"/>
<path d="M1247 2723 c-3 -2 -1 -18 5 -34 6 -16 8 -44 6 -63 -2 -19 2 -38 9
-45 18 -16 16 -41 -2 -41 -25 0 -72 27 -79 45 -13 35 -6 76 19 100 13 14 20
25 15 25 -5 0 -18 -12 -29 -26 -46 -58 -10 -145 61 -149 19 -1 42 -6 49 -10 8
-5 11 -5 7 0 -4 4 4 21 17 37 31 37 33 86 4 122 -11 14 -24 26 -29 26 -5 0 2
-11 15 -25 17 -16 25 -35 25 -58 0 -34 -23 -77 -35 -66 -10 11 -36 132 -31
145 5 13 -18 27 -27 17z"/>
<path d="M484 2689 c-16 -17 -16 -22 -4 -29 8 -6 11 -10 5 -10 -5 0 -3 -6 6
-13 9 -7 16 -14 16 -17 0 -34 21 -56 47 -51 5 1 4 -4 -2 -12 -10 -11 -7 -20
13 -41 14 -15 25 -32 25 -39 0 -7 20 -48 44 -93 23 -44 46 -92 50 -107 3 -15
11 -27 17 -27 6 0 7 -5 3 -12 -4 -6 1 -17 11 -25 11 -7 14 -13 7 -13 -8 0 -8
-8 -1 -30 6 -16 15 -30 21 -30 6 0 7 -7 4 -16 -10 -27 16 -74 41 -74 32 0 34
11 16 74 -11 39 -19 53 -25 44 -5 -8 -6 -3 -2 14 5 21 2 29 -11 34 -9 4 -12 9
-7 13 7 4 4 19 -5 41 -18 38 -20 45 -22 61 0 5 -5 8 -10 5 -5 -3 -9 0 -8 7 1
34 -4 48 -15 41 -7 -4 -8 -3 -4 4 8 13 -23 72 -37 72 -4 0 -6 4 -2 9 3 6 -5
20 -17 32 -13 12 -16 18 -9 14 8 -5 4 7 -10 26 -13 19 -24 36 -25 39 -2 17
-48 79 -55 74 -5 -3 -6 -10 -3 -16 4 -7 2 -8 -4 -4 -9 5 -9 13 -1 27 9 17 7
21 -11 26 -16 4 -18 8 -8 14 7 5 8 9 2 9 -6 0 -19 -9 -30 -21z"/>
<path d="M406 2678 c-2 -7 -3 -58 -3 -113 l2 -99 33 -3 c20 -2 31 1 27 7 -3 5
0 7 8 5 7 -3 22 4 33 16 11 14 13 19 4 14 -13 -8 -13 -6 -2 7 11 14 11 21 -3
42 -15 23 -44 28 -30 5 4 -5 2 -9 -4 -9 -6 0 -8 15 -6 33 3 24 -1 40 -15 55
-11 12 -20 26 -20 31 0 16 -20 23 -24 9z"/>
<path d="M220 2530 l0 -153 34 6 c19 3 36 1 38 -4 2 -5 23 5 48 21 l45 30 -35
1 -35 2 35 6 35 6 0 90 c0 124 -1 128 -41 123 -18 -2 -30 0 -28 4 3 4 -4 8
-14 8 -11 0 -34 3 -51 6 l-31 7 0 -153z"/>
<path d="M535 2451 c3 -10 -1 -23 -9 -30 -12 -10 -16 -8 -21 8 -3 12 -12 18
-20 15 -12 -5 -12 -8 0 -21 20 -19 19 -30 -4 -43 -24 -12 -35 1 -26 30 6 18 4
19 -19 9 -22 -11 -23 -13 -9 -27 13 -14 13 -17 -9 -33 l-23 -19 23 0 c23 0 31
-25 10 -33 -8 -4 -7 -6 3 -6 18 -1 31 22 24 42 -4 10 14 23 63 44 7 3 18 -9
28 -32 8 -20 18 -35 21 -32 3 4 12 0 19 -8 15 -15 44 -10 44 7 0 7 -5 6 -14
-1 -11 -9 -15 -7 -19 9 -3 11 -1 20 4 20 5 0 9 7 9 15 0 19 -14 19 -31 -1 -11
-14 -14 -12 -27 11 -17 33 -8 46 14 19 13 -17 13 -15 -1 14 -10 21 -12 32 -4
32 8 0 8 4 -1 15 -17 21 -33 19 -25 -4z"/>
<path d="M337 2363 c-4 -3 -7 -11 -7 -16 0 -6 3 -7 7 -4 11 12 33 -14 33 -39
0 -12 4 -25 10 -29 5 -3 7 -12 4 -19 -3 -8 -1 -17 5 -21 7 -3 8 0 5 9 -4 9 -1
16 6 16 8 0 11 -9 8 -25 -3 -13 -2 -22 2 -20 4 3 11 -6 14 -20 4 -14 11 -25
17 -25 6 0 8 -9 4 -22 -5 -18 -4 -20 4 -8 9 13 11 12 12 -5 1 -11 1 -24 0 -28
-1 -5 3 -6 9 -2 5 3 11 0 12 -7 0 -7 2 -17 3 -23 2 -5 3 -16 4 -22 0 -7 9 -13
19 -14 10 0 12 -3 4 -6 -17 -7 -5 -23 19 -23 22 0 23 1 8 34 -7 14 -17 23 -23
19 -6 -3 -8 -3 -5 1 11 12 -6 61 -21 61 -7 0 -14 9 -16 20 -2 11 -7 21 -12 23
-6 2 -9 11 -7 20 1 9 0 11 -2 4 -8 -21 -23 -2 -23 28 0 16 -4 31 -10 35 -5 3
-7 12 -3 20 3 8 0 15 -7 15 -6 0 -8 -4 -5 -10 3 -5 1 -10 -4 -10 -6 0 -11 11
-11 24 0 14 -5 28 -11 31 -6 4 -8 14 -5 22 3 8 1 11 -4 8 -6 -3 -10 -1 -10 4
0 12 -13 14 -23 4z"/>
<path d="M292 2332 c-7 -9 -10 -11 -7 -4 3 6 4 12 1 12 -6 0 -58 -50 -75 -73
-13 -16 -12 -17 12 -8 23 9 28 7 38 -11 12 -21 10 -24 -33 -49 -10 -5 -18 -17
-18 -26 0 -12 3 -13 14 -4 12 10 17 8 25 -8 14 -26 14 -31 -1 -27 -7 1 -10 1
-5 -1 4 -3 7 -10 7 -17 0 -8 12 -13 29 -12 16 1 27 4 25 8 -7 11 55 40 68 32
7 -4 8 -3 4 4 -4 7 -3 12 3 12 18 0 22 -19 5 -28 -15 -8 -15 -10 0 -15 10 -4
15 -3 11 3 -3 6 -1 10 5 10 24 0 3 -23 -23 -26 -18 -2 -25 1 -21 8 4 7 2 8 -5
4 -6 -4 -9 -10 -7 -14 2 -4 -2 -15 -9 -25 -11 -16 -13 -16 -19 -2 -3 9 -10 13
-16 10 -5 -3 -10 -1 -10 5 0 6 -5 8 -11 4 -7 -4 2 -15 25 -29 20 -12 33 -25
28 -30 -4 -4 -1 -5 6 -1 6 4 12 15 12 24 1 12 4 10 14 -8 8 -14 11 -32 6 -45
-11 -30 -2 -45 28 -45 l27 1 -28 12 -29 12 47 23 c25 12 51 20 56 17 11 -8 12
5 0 23 -6 10 -14 9 -40 -5 -28 -16 -33 -16 -41 -3 -12 19 -13 63 -1 56 5 -4
19 -2 31 2 21 8 21 9 5 25 -15 15 -21 31 -24 60 -2 13 -31 7 -37 -7 -3 -8 -12
-12 -20 -9 -8 3 -14 -1 -14 -9 0 -19 -48 -17 -60 2 -17 26 -11 34 40 59 28 14
50 31 50 38 0 18 -7 16 -40 -7 -29 -20 -29 -20 -39 -1 -16 29 -14 36 14 51 25
13 33 34 17 44 -4 2 -14 -3 -20 -12z"/>
<path d="M473 2298 c-35 -21 -43 -38 -18 -38 8 0 15 5 15 10 0 6 5 10 10 10 6
0 19 9 30 20 26 26 5 25 -37 -2z"/>
<path d="M613 2288 c-24 -12 -30 -32 -13 -43 5 -3 15 -15 20 -26 9 -17 4 -22
-45 -46 -34 -17 -55 -33 -53 -42 4 -21 21 -23 43 -6 19 16 19 16 -2 5 -40 -19
-24 -1 17 20 23 11 45 18 50 15 6 -4 13 0 16 9 3 8 12 12 20 9 11 -4 12 1 2
28 -10 28 -12 30 -18 14 -7 -19 -7 -19 -18 2 -14 25 -15 36 -4 30 4 -3 7 6 7
19 0 13 0 24 0 23 0 0 -10 -5 -22 -11z"/>
<path d="M502 2227 c-27 -12 -25 -41 3 -44 11 -2 14 0 7 3 -10 5 -9 10 4 25
21 24 16 30 -14 16z"/>
<path d="M563 2213 c-34 -23 -28 -36 7 -18 17 9 28 20 25 25 -7 12 -5 12 -32
-7z"/>
<path d="M303 2198 c-23 -11 -31 -28 -13 -28 16 0 60 23 60 32 0 11 -20 9 -47
-4z"/>
<path d="M602 2121 c-18 -8 -32 -18 -32 -23 0 -4 -7 -8 -16 -8 -14 0 -14 -1 0
-16 15 -15 20 -29 17 -48 -1 -5 15 -6 36 -2 21 3 47 6 59 6 11 0 28 6 38 13
17 12 17 15 -6 49 -27 42 -52 50 -96 29z"/>
<path d="M694 2009 c-3 -6 -14 -7 -23 -4 -28 8 -52 -4 -42 -22 4 -8 5 -32 1
-53 -6 -33 -5 -37 14 -36 12 1 20 7 19 13 -2 8 6 9 25 4 57 -15 69 -1 56 67
-6 30 -38 50 -50 31z"/>
<path d="M528 1989 c-49 -8 -108 -36 -108 -53 0 -5 -15 -22 -32 -38 -18 -15
-28 -28 -23 -27 23 3 23 -2 -1 -26 -14 -14 -30 -22 -36 -19 -6 4 -8 3 -5 -3 9
-14 -32 -65 -44 -57 -5 3 -8 1 -7 -4 2 -6 0 -9 -4 -9 -10 3 -37 -36 -38 -53 0
-8 11 -28 24 -45 19 -24 24 -26 22 -11 -2 11 -8 22 -15 24 -7 2 25 41 74 88
54 52 92 81 101 77 8 -3 14 -1 14 5 0 5 7 13 16 16 10 4 13 2 8 -7 -6 -9 -5
-9 7 -1 26 21 92 35 101 21 5 -7 8 3 6 25 -1 20 1 40 5 44 12 12 8 52 -5 56
-7 2 -34 1 -60 -3z"/>
<path d="M789 1998 c-1 -2 -3 -16 -4 -33 -4 -39 4 -67 16 -60 5 4 17 1 26 -4
17 -10 16 -11 -2 -12 -11 -1 -23 -1 -27 0 -10 1 -10 -13 -2 -22 3 -3 8 -27 10
-54 2 -26 8 -49 14 -51 6 -2 8 -8 5 -12 -8 -13 27 -220 36 -214 4 2 6 -7 3
-21 -2 -14 0 -25 5 -25 5 0 7 -9 4 -20 -3 -11 -2 -28 2 -37 5 -10 7 -27 6 -39
-3 -32 19 -118 32 -126 9 -6 9 -8 -1 -8 -12 0 -8 -42 7 -65 4 -5 6 -20 5 -32
0 -13 4 -23 10 -23 6 0 5 -4 -3 -9 -8 -5 -9 -11 -3 -15 6 -3 8 -16 4 -28 -3
-14 -1 -19 6 -14 8 5 10 2 6 -8 -5 -13 1 -16 27 -16 26 0 30 3 19 10 -8 5 -10
10 -5 10 7 0 9 15 7 36 -3 20 -8 31 -11 25 -4 -6 -7 6 -8 26 0 82 -3 99 -13
83 -7 -11 -8 -5 -5 20 5 43 -5 116 -15 101 -3 -6 -7 19 -7 56 0 38 -5 69 -11
71 -6 2 -9 9 -6 15 2 7 -9 86 -26 177 -16 91 -32 185 -35 210 -3 24 -9 47 -14
50 -5 3 -8 16 -7 30 1 19 -5 26 -21 28 -13 2 -24 2 -24 0z"/>
<path d="M720 1880 c19 -12 -29 -40 -67 -40 -26 0 -33 -4 -33 -19 0 -11 -15
-31 -32 -46 -31 -24 -31 -25 -6 -14 24 10 31 9 48 -6 12 -10 18 -25 16 -32 -7
-18 21 -28 38 -14 7 6 28 12 46 14 37 4 63 43 36 53 -9 3 -12 13 -8 27 6 22 6
21 14 -3 5 -17 6 -12 2 15 -3 22 -10 45 -15 51 -5 6 -6 13 -3 16 2 3 -7 6 -22
6 -15 0 -21 -4 -14 -8z"/>
<path d="M399 1801 c-14 -15 -34 -34 -45 -42 -27 -21 -79 -79 -70 -79 4 0 24
17 45 38 21 20 53 49 71 64 17 15 31 31 29 37 -2 5 -15 -2 -30 -18z"/>
<path d="M538 1814 c-16 -8 -28 -18 -29 -22 0 -4 -2 -15 -4 -24 -3 -19 10 -25
19 -9 4 5 0 12 -6 14 -7 3 -4 6 7 7 28 1 61 28 49 39 -5 6 -20 4 -36 -5z"/>
<path d="M482 1798 c-14 -14 -16 -58 -3 -58 5 0 11 16 13 35 2 19 4 35 3 35
-1 0 -6 -5 -13 -12z"/>
<path d="M451 1716 c-9 -11 -27 -14 -59 -12 -26 2 -41 1 -34 -1 20 -7 14 -25
-7 -18 -11 3 -28 -3 -42 -16 -13 -11 -19 -18 -12 -15 6 4 14 3 17 -2 3 -5 32
-9 65 -10 33 -1 64 -3 68 -4 11 -4 14 9 7 27 -3 8 -3 23 0 32 6 15 8 15 16 3
6 -8 10 -10 10 -5 0 6 -4 16 -9 23 -6 10 -10 10 -20 -2z"/>
<path d="M518 1723 c0 -5 -2 -21 -3 -37 -2 -27 -1 -28 36 -23 l38 5 7 -43 6
-44 64 3 c68 3 88 11 64 27 -12 7 -13 11 -2 18 19 12 11 55 -10 59 -13 3 -18
-3 -18 -22 0 -18 -6 -26 -17 -27 -15 0 -15 -2 2 -9 22 -9 16 -11 -42 -14 -26
-2 -33 2 -34 16 -3 54 -2 64 5 76 4 7 1 12 -9 12 -8 0 -18 -7 -21 -15 -9 -22
-31 -18 -37 5 -5 19 -25 28 -29 13z"/>
<path d="M521 1623 c7 -10 14 -20 15 -21 1 -2 7 6 14 17 10 19 8 21 -16 21
-24 0 -25 -2 -13 -17z"/>
<path d="M350 1576 c0 -49 15 -61 54 -46 19 7 23 14 18 37 -6 31 -28 52 -54
53 -15 0 -18 -9 -18 -44z"/>
<path d="M298 1603 c6 -2 10 -8 7 -13 -8 -12 16 -60 27 -54 5 3 3 13 -4 22
-11 13 -11 14 1 7 11 -6 13 -4 8 9 -4 10 -7 22 -7 27 0 5 -10 9 -22 8 -13 0
-17 -3 -10 -6z"/>
<path d="M686 1551 c-5 -7 4 -11 25 -11 18 0 29 -3 25 -7 -3 -4 -36 -7 -73 -7
-44 -1 -68 -5 -70 -13 -3 -9 6 -13 26 -13 28 0 31 -3 31 -30 0 -25 -4 -30 -25
-30 -16 0 -25 -6 -25 -15 0 -8 6 -15 13 -15 8 0 7 -4 -3 -10 -13 -9 -13 -10 0
-10 8 1 23 6 32 14 12 9 32 10 70 5 29 -4 61 -8 71 -8 22 -1 23 36 0 41 -14 2
-17 13 -14 54 2 36 -1 51 -11 52 -7 1 -25 4 -39 8 -15 3 -30 1 -33 -5z m54
-81 c0 -24 -4 -30 -21 -30 -11 0 -17 -4 -14 -10 3 -5 -1 -10 -10 -10 -9 0 -13
5 -10 10 3 6 1 10 -4 10 -6 0 -11 14 -11 30 0 28 3 30 35 30 32 0 35 -2 35
-30z"/>
<path d="M412 1485 c-1 -14 3 -25 8 -25 6 0 9 3 9 8 -3 18 2 32 12 32 5 0 7
-4 4 -10 -3 -5 -2 -10 2 -10 5 0 7 -18 5 -40 -3 -29 0 -40 9 -40 10 0 14 15
14 53 1 52 1 53 -30 55 -26 2 -31 -1 -33 -23z"/>
<path d="M527 1473 c-14 -13 -7 -73 7 -73 15 0 36 48 29 68 -5 13 -25 16 -36
5z"/>
<path d="M403 1375 c0 -38 2 -53 4 -32 2 20 2 52 0 70 -2 17 -4 1 -4 -38z"/>
<path d="M1050 1392 c-8 -4 -16 -18 -18 -31 -3 -16 0 -21 9 -16 8 6 10 4 4 -4
-8 -13 25 -232 35 -226 3 2 5 -11 5 -28 0 -28 4 -32 28 -35 16 -2 35 2 43 9
15 12 19 51 7 63 -4 4 -9 26 -10 49 -1 23 -8 54 -14 69 -6 16 -9 43 -5 60 6
30 5 31 -8 13 -14 -19 -15 -17 -16 27 0 36 4 48 18 51 9 3 -1 5 -23 5 -22 0
-47 -2 -55 -6z"/>
<path d="M707 1383 c-2 -5 -2 -27 1 -50 4 -42 5 -43 42 -43 22 0 42 5 45 11 9
13 -4 27 -13 14 -4 -6 -19 -11 -34 -12 -26 -1 -26 0 -12 22 16 24 15 45 -1 57
-13 10 -23 10 -28 1z"/>
<path d="M805 1381 c-3 -5 -1 -12 5 -16 5 -3 10 -26 10 -51 0 -41 2 -44 26
-44 14 0 23 4 19 9 -3 5 -7 28 -9 52 -5 48 -34 77 -51 50z"/>
<path d="M457 1373 c-4 -3 -7 -21 -7 -40 0 -23 5 -33 15 -33 11 0 15 11 15 40
0 38 -8 49 -23 33z"/>
<path d="M520 1335 l0 -45 50 0 c33 0 50 4 50 13 0 9 2 9 9 -1 4 -8 19 -12 32
-10 21 3 24 8 23 43 0 46 -29 64 -37 23 l-4 -23 -2 23 c-1 18 -7 22 -34 22
-25 0 -37 -6 -45 -22 l-11 -23 0 23 c-1 13 -7 22 -16 22 -11 0 -15 -12 -15
-45z"/>
<path d="M1538 1358 c-2 -6 -30 -13 -61 -16 -47 -4 -57 -8 -57 -23 0 -12 7
-19 20 -19 11 0 20 5 20 10 0 6 7 10 15 10 8 0 15 -4 15 -10 0 -5 16 -10 36
-10 28 0 35 -3 30 -15 -3 -8 2 -19 11 -24 15 -8 17 -28 14 -157 -1 -81 -5
-152 -8 -158 -4 -5 -1 -6 6 -1 10 5 11 -2 7 -31 -4 -28 -3 -35 4 -24 5 8 10
47 11 85 2 57 3 62 8 31 3 -22 13 -42 21 -44 13 -5 13 -3 0 13 -14 17 -13 18
3 12 21 -8 27 30 13 94 -4 17 -1 31 9 39 15 13 11 35 -5 25 -5 -3 -5 9 0 26
10 34 5 53 -11 44 -5 -4 -9 -44 -9 -91 0 -55 -4 -83 -10 -79 -6 4 -8 10 -5 15
8 13 8 222 0 253 -4 16 -19 34 -36 42 -34 18 -36 18 -41 3z"/>
<path d="M1230 1240 l0 -120 50 0 50 0 0 120 0 120 -50 0 -50 0 0 -120z m80
-10 c0 -28 -3 -30 -35 -30 -32 0 -35 2 -35 30 0 28 3 30 35 30 32 0 35 -2 35
-30z"/>
<path d="M404 1254 c3 -9 6 -18 6 -20 0 -3 5 -2 12 2 6 4 8 3 4 -4 -9 -15 24
-82 41 -82 9 0 13 17 13 60 l0 60 -41 0 c-33 0 -40 -3 -35 -16z"/>
<path d="M510 1234 c0 -19 5 -45 11 -56 9 -16 8 -19 -2 -13 -9 6 -11 3 -6 -9
4 -10 7 -22 7 -27 0 -5 16 -9 35 -9 21 0 35 5 35 13 0 8 4 7 10 -3 7 -11 10
-8 10 16 0 23 -7 36 -25 48 -17 11 -25 26 -25 46 0 25 -4 30 -25 30 -22 0 -25
-4 -25 -36z"/>
<path d="M596 1255 c-21 -21 -7 -35 37 -35 23 0 27 -4 27 -30 0 -20 -5 -30
-15 -30 -8 0 -15 -8 -15 -18 0 -17 12 -20 98 -25 152 -11 158 -10 158 13 0 16
-7 20 -37 20 l-36 0 5 50 c4 49 4 50 -23 50 -27 0 -27 -1 -23 -57 3 -50 1 -58
-14 -57 -10 1 -30 2 -45 3 -23 1 -28 6 -28 26 0 14 4 25 9 25 5 0 3 7 -4 15
-9 10 -9 15 -1 15 6 0 11 7 11 15 0 11 -11 15 -39 15 -22 0 -41 5 -43 11 -3 8
-10 5 -22 -6z"/>
<path d="M1420 1196 c0 -69 10 -81 56 -70 22 6 24 11 24 70 l0 64 -40 0 -40 0
0 -64z"/>
<path d="M491 999 c0 -44 -3 -84 -6 -89 -3 -4 36 -8 87 -8 54 0 86 3 78 8 -20
13 -20 147 0 160 10 7 -13 10 -72 10 l-86 0 -1 -81z m99 -9 c0 -36 -2 -40 -25
-40 -22 0 -25 4 -25 40 0 36 3 40 25 40 23 0 25 -4 25 -40z"/>
<path d="M760 1071 c0 -5 4 -11 10 -13 5 -1 11 -22 12 -45 1 -24 6 -43 12 -43
7 0 7 -3 1 -8 -5 -4 -11 -15 -13 -24 -2 -15 5 -18 36 -18 l39 0 -1 58 c0 41
-5 59 -16 64 -12 5 -12 7 3 7 9 1 17 8 17 16 0 11 -12 15 -50 15 -27 0 -50 -4
-50 -9z"/>
<path d="M1221 1072 c-14 -5 -14 -29 -1 -37 5 -3 29 3 52 13 24 11 50 22 58
24 8 3 -11 4 -42 4 -31 -1 -62 -2 -67 -4z"/>
<path d="M1436 1035 c-22 -22 -21 -25 15 -25 23 0 30 4 27 17 -4 23 -23 27
-42 8z"/>
<path d="M457 1033 c-10 -10 -8 -45 2 -39 5 4 12 0 14 -6 3 -7 6 -4 6 7 1 24
-13 48 -22 38z"/>
<path d="M1363 995 c0 -10 6 -14 14 -10 8 3 19 5 24 5 5 0 9 5 9 10 0 6 -10
10 -23 10 -15 0 -24 -6 -24 -15z"/>
<path d="M1450 992 c-20 -9 -26 -82 -7 -82 9 0 12 9 9 30 -2 17 1 37 8 45 14
16 13 17 -10 7z"/>
<path d="M1526 986 c3 -9 1 -16 -5 -16 -16 0 -14 -47 2 -53 16 -6 23 68 7 78
-6 3 -7 -1 -4 -9z"/>
<path d="M1225 980 c-7 -11 4 -60 14 -60 3 0 13 5 21 11 10 7 11 12 4 15 -7 3
-10 14 -7 24 6 21 -20 29 -32 10z"/>
<path d="M1280 969 c0 -17 4 -20 23 -15 12 3 26 6 31 6 14 0 -27 29 -41 30 -7
0 -13 -10 -13 -21z"/>
<path d="M1383 972 c-28 -4 -29 -18 -3 -32 23 -12 40 -6 40 15 0 18 -9 22 -37
17z"/>
<path d="M974 934 c-6 -3 -9 -15 -7 -27 3 -14 -2 -29 -11 -36 -18 -15 -22 -71
-5 -71 8 0 8 -4 0 -14 -10 -12 -8 -14 13 -12 23 3 26 0 26 -28 0 -42 13 -58
41 -54 22 3 24 7 21 48 -2 25 -7 47 -10 50 -4 3 -8 29 -9 58 -4 77 -21 102
-59 86z m6 -94 c-21 -14 -30 -12 -30 4 0 18 22 27 35 14 6 -6 5 -12 -5 -18z"/>
<path d="M1108 910 c2 -17 9 -27 15 -23 6 4 7 1 2 -6 -4 -7 -2 -48 5 -92 l13
-80 54 2 c41 2 53 6 49 16 -3 8 -2 11 3 8 5 -3 12 -1 15 4 3 5 -6 20 -22 33
-28 23 -32 29 -32 49 0 5 -3 8 -7 6 -5 -3 -9 16 -10 41 -3 66 -8 72 -51 72
-37 0 -38 -1 -34 -30z"/>
<path d="M1300 929 c0 -5 -7 -9 -15 -9 -8 0 -15 -7 -15 -16 0 -8 -4 -12 -10
-9 -5 3 -10 4 -10 1 0 -2 -3 -12 -6 -20 -6 -15 9 -16 142 -14 115 2 148 6 152
17 4 11 -10 13 -72 8 -67 -6 -78 -4 -83 11 -4 9 -14 21 -22 26 -22 13 -61 17
-61 5z"/>
<path d="M580 861 c0 -6 -9 -11 -21 -11 -16 0 -19 -4 -14 -22 6 -21 5 -22 -8
-5 -8 9 -25 17 -38 17 -19 0 -21 -2 -9 -10 8 -5 10 -10 4 -10 -6 0 -10 -10 -8
-22 1 -13 3 -29 3 -35 2 -30 21 -10 21 23 0 22 4 33 11 29 5 -4 9 -18 7 -33
-2 -14 3 -27 10 -29 7 -3 12 5 12 19 1 20 2 21 11 5 8 -14 14 -15 30 -6 26 13
81 3 58 -12 -11 -7 -9 -9 9 -9 20 0 21 3 12 20 -6 11 -8 24 -5 29 3 5 -3 12
-12 14 -10 3 2 5 27 5 36 1 41 -1 23 -8 -13 -5 -23 -14 -23 -20 0 -6 5 -8 12
-4 7 4 8 3 4 -4 -7 -11 31 -38 41 -29 2 3 0 15 -7 26 -7 14 -7 21 0 21 5 0 9
3 8 8 0 4 2 15 7 25 4 10 4 21 1 25 -10 9 -116 9 -116 0 0 -5 5 -8 11 -8 6 0
3 -7 -5 -16 -9 -8 -13 -21 -9 -27 3 -7 2 -8 -3 -4 -4 4 -8 20 -9 35 0 17 -6
28 -17 30 -10 2 -18 -1 -18 -7z"/>
<path d="M813 863 l-42 -4 2 -70 c1 -38 -1 -69 -4 -69 -3 0 -11 -10 -17 -22
l-11 -23 0 25 c-1 23 -5 25 -59 27 l-57 3 -1 -36 0 -36 47 4 c27 3 54 1 61 -3
7 -4 16 -3 21 4 7 9 10 9 14 0 5 -13 71 -17 109 -7 16 4 19 12 16 35 -4 24 -9
29 -33 29 -26 0 -29 4 -29 30 0 23 4 30 20 30 13 0 20 7 20 19 0 11 4 21 9 23
4 2 12 13 15 26 8 24 12 23 -81 15z"/>
<path d="M1296 801 c-17 -7 -17 -9 8 -37 14 -16 25 -23 24 -15 -2 7 3 16 11
19 9 3 11 0 6 -8 -6 -9 -3 -9 13 -1 29 15 75 14 98 -4 10 -8 14 -15 9 -15 -6
0 -16 5 -23 12 -9 9 -12 9 -12 -3 0 -11 12 -16 40 -17 30 -2 40 1 40 13 0 9
-9 15 -22 15 -13 0 -18 3 -12 8 6 4 14 14 17 22 4 13 6 12 6 -1 1 -12 14 -19
45 -23 25 -4 47 -13 50 -22 3 -8 10 -12 16 -9 16 10 12 40 -8 58 -15 14 -41
17 -153 16 -74 -1 -142 -4 -153 -8z"/>
<path d="M1483 693 c-17 -6 -16 -51 1 -69 20 -19 76 -19 76 1 0 10 -10 15 -29
15 -20 0 -30 6 -34 20 -3 11 -1 20 4 20 5 0 9 5 9 10 0 11 -7 12 -27 3z"/>
<path d="M1385 683 c-63 -16 -52 -53 13 -49 26 2 50 4 53 5 4 0 7 12 7 26 0
21 -5 25 -27 24 -14 -1 -35 -4 -46 -6z"/>
<path d="M1153 656 c4 -9 9 -38 13 -66 4 -27 10 -50 14 -50 5 0 6 -8 3 -18 -2
-10 10 -94 26 -187 17 -94 33 -184 36 -201 6 -37 44 -51 72 -27 11 8 12 11 3
7 -13 -7 -13 -5 -1 9 7 9 10 17 5 17 -5 0 -10 21 -11 47 -1 25 -6 49 -11 52
-5 3 -8 21 -6 39 1 17 -2 32 -7 32 -4 0 -6 7 -3 15 4 8 2 15 -4 15 -5 0 -8 15
-6 33 3 17 -2 56 -9 84 -13 50 -13 56 10 110 36 90 32 97 -56 101 -63 2 -73 1
-68 -12z"/>
<path d="M1744 655 c-5 -11 -16 -13 -47 -8 -27 4 -38 3 -33 -5 3 -5 2 -12 -4
-14 -5 -1 -7 -13 -4 -25 5 -17 15 -22 57 -25 29 -2 53 -3 55 -2 2 1 4 22 6 48
2 33 -1 46 -11 46 -8 0 -16 -7 -19 -15z"/>
<path d="M1847 654 c3 -9 -2 -14 -16 -14 -13 0 -21 -6 -21 -16 0 -10 6 -14 15
-10 10 3 15 -1 15 -11 0 -14 2 -14 15 3 8 10 15 27 15 37 0 10 5 15 10 12 6
-4 8 -11 5 -16 -4 -5 -2 -9 4 -9 5 0 12 8 14 18 3 10 5 6 6 -11 0 -16 5 -26
10 -23 5 3 12 -5 15 -19 4 -14 13 -25 22 -25 11 0 14 10 13 45 -3 50 -8 53
-81 53 -36 0 -45 -3 -41 -14z"/>
<path d="M1330 575 c0 -8 -4 -15 -10 -15 -5 0 -10 -9 -10 -20 0 -14 7 -20 21
-20 18 0 21 5 17 29 -2 17 -1 28 4 25 4 -3 8 0 8 5 0 6 -7 11 -15 11 -8 0 -15
-7 -15 -15z"/>
<path d="M1685 530 c3 -5 13 -10 21 -10 17 0 44 -23 44 -38 0 -6 -7 -13 -16
-16 -9 -4 -14 -9 -10 -13 3 -4 -6 -12 -21 -19 -23 -10 -24 -12 -8 -13 36 -1
99 69 75 84 -5 3 -7 12 -3 20 4 12 -5 15 -42 15 -28 0 -44 -4 -40 -10z"/>
<path d="M1810 519 c0 -10 30 -20 40 -14 5 3 26 6 49 7 22 1 38 5 36 9 -6 9
-125 7 -125 -2z"/>
<path d="M1991 496 c-8 -13 -10 -29 -7 -35 4 -6 2 -11 -3 -11 -6 0 -11 14 -11
31 0 19 -4 28 -11 23 -6 -3 -9 -17 -6 -30 4 -21 1 -24 -29 -24 -18 0 -36 -5
-40 -11 -4 -7 4 -10 22 -9 16 1 46 2 67 1 35 -1 37 -3 34 -28 -3 -22 -9 -28
-28 -29 -13 0 -33 -5 -44 -11 -17 -10 -9 -12 43 -12 55 1 62 3 62 20 0 11 -4
17 -10 14 -6 -4 -10 6 -10 22 0 22 2 25 10 13 7 -11 10 -2 10 31 0 52 -7 64
-27 47 -11 -8 -12 -7 -7 6 9 24 -1 19 -15 -8z"/>
<path d="M2150 511 c0 -6 -11 -11 -25 -11 -24 0 -25 -2 -25 -66 0 -41 -4 -63
-10 -59 -5 3 -10 -1 -10 -10 0 -9 5 -13 11 -10 7 5 10 -35 8 -133 -2 -101 -6
-139 -14 -136 -7 3 -18 -2 -25 -11 -11 -13 1 -15 113 -15 142 0 127 -10 148
97 6 34 9 72 6 83 -3 11 0 20 6 21 12 0 -20 17 -35 18 -5 1 -8 -33 -8 -74 0
-68 -18 -135 -36 -135 -2 0 0 8 5 18 8 15 16 147 20 330 1 21 6 32 16 32 9 0
15 9 15 24 0 21 -6 24 -51 30 -29 4 -65 10 -80 13 -18 3 -29 1 -29 -6z m-4
-180 c-14 -15 -17 -36 -15 -112 1 -52 6 -103 11 -114 9 -20 9 -20 -6 -1 -23
29 -23 202 1 228 9 10 18 18 21 18 3 0 -3 -8 -12 -19z m86 2 c15 -14 18 -32
18 -119 0 -57 -4 -105 -8 -108 -4 -2 -7 43 -5 100 1 92 -1 108 -18 125 -23 23
-13 26 13 2z"/>
<path d="M1807 483 c-8 -7 31 -53 45 -53 4 0 8 14 8 30 0 25 -4 30 -23 30 -13
0 -27 -3 -30 -7z"/>
<path d="M1880 474 c0 -11 8 -14 27 -12 39 4 42 28 4 28 -21 0 -31 -5 -31 -16z"/>
<path d="M1390 457 c0 -7 5 -18 11 -24 6 -6 9 -21 7 -34 -2 -18 -10 -25 -30
-27 -40 -5 -34 -22 6 -22 34 0 35 1 38 43 3 42 3 42 46 45 40 3 42 2 42 -26 0
-16 3 -50 6 -76 l7 -46 -52 0 c-39 0 -51 -4 -51 -15 0 -8 5 -15 11 -15 6 0 9
-12 7 -27 -2 -22 -9 -29 -30 -31 -16 -2 -28 -8 -28 -13 0 -5 47 -9 105 -9 63
0 105 4 105 10 0 6 -11 10 -25 10 -23 0 -25 4 -26 48 -1 26 -3 80 -4 120 l-3
72 29 0 c31 0 39 14 13 24 -9 3 -54 6 -100 6 -62 0 -84 -3 -84 -13z m130 -219
c0 -35 -12 -47 -43 -41 -22 4 -27 11 -27 34 0 26 3 29 35 29 30 0 35 -3 35
-22z"/>
<path d="M2297 386 c-5 -21 -6 -41 -3 -44 12 -11 17 7 14 44 l-3 39 -8 -39z"/>
<path d="M2320 380 c0 -22 5 -40 10 -40 6 0 10 18 10 40 0 22 -4 40 -10 40 -5
0 -10 -18 -10 -40z"/>
<path d="M1915 400 c3 -5 22 -10 41 -10 19 0 34 5 34 10 0 6 -18 10 -41 10
-24 0 -38 -4 -34 -10z"/>
<path d="M1711 391 c-24 -15 -5 -42 24 -35 14 3 33 7 43 8 9 0 19 4 22 7 3 4
14 3 25 -2 11 -4 14 -8 8 -8 -8 -1 -13 -15 -13 -35 l0 -33 -52 5 c-29 2 -57 8
-63 12 -6 5 -10 -1 -10 -15 0 -23 3 -23 83 -24 66 -1 82 2 82 14 0 8 -4 15
-10 15 -5 0 -10 11 -10 25 0 14 5 25 10 25 14 0 12 28 -2 33 -7 2 -40 2 -73 0
-43 -3 -56 -1 -45 6 18 13 1 14 -19 2z"/>
<path d="M1436 373 c-14 -15 -3 -23 30 -23 22 0 34 4 32 11 -4 13 -52 21 -62
12z"/>
<path d="M1730 330 c0 -5 18 -10 41 -10 24 0 38 4 34 10 -3 6 -22 10 -41 10
-19 0 -34 -4 -34 -10z"/>
<path d="M1890 280 c0 -11 0 -23 -1 -27 0 -4 4 -9 10 -11 6 -2 11 6 11 17 0
19 6 21 51 21 l50 0 -5 -30 c-2 -19 0 -30 7 -30 7 0 6 -5 -3 -10 -12 -8 -11
-10 8 -10 16 0 22 6 22 21 0 11 -4 17 -10 14 -6 -4 -10 6 -10 22 0 22 2 25 10
13 8 -12 10 -11 10 8 0 21 -4 22 -75 22 -68 0 -75 -2 -75 -20z"/>
<path d="M1930 250 c0 -5 14 -10 30 -10 17 0 30 4 30 8 0 4 -13 9 -30 10 -16
1 -30 -2 -30 -8z"/>
<path d="M1700 219 c0 -7 24 -9 73 -5 39 3 67 2 60 -2 -6 -4 -13 -20 -15 -37
-3 -29 -4 -29 -59 -26 -39 2 -58 -2 -61 -11 -4 -10 12 -12 76 -10 78 3 105 10
79 19 -15 5 -18 53 -3 53 6 0 10 7 10 15 0 12 -16 15 -80 15 -51 0 -80 -4 -80
-11z"/>
<path d="M1884 219 c-2 -4 -1 -10 4 -13 12 -7 72 -4 72 4 0 10 -70 18 -76 9z"/>
<path d="M1730 180 c0 -5 13 -10 29 -10 17 0 33 5 36 10 4 6 -8 10 -29 10 -20
0 -36 -4 -36 -10z"/>
<path d="M1890 135 l0 -45 40 0 40 0 0 45 0 45 -40 0 -40 0 0 -45z"/>
<path d="M1987 173 c-14 -13 -6 -32 16 -36 l22 -4 -22 -2 c-32 -2 -30 -31 2
-31 23 0 25 4 25 40 0 32 -4 40 -18 40 -10 0 -22 -3 -25 -7z"/>
<path d="M1363 147 c2 -7 21 -13 42 -14 45 -3 43 1 -8 15 -29 8 -37 8 -34 -1z"/>
<path d="M1533 153 c-26 -10 -12 -20 30 -21 39 -1 41 0 23 13 -20 15 -32 17
-53 8z"/>
</g>
</svg>
